<?xml version="1.0" encoding="UTF-8" standalone="no"?><!DOCTYPE svg PUBLIC "-//W3C//DTD SVG 1.1//EN" "http://www.w3.org/Graphics/SVG/1.1/DTD/svg11.dtd"><svg width="100%" height="100%" viewBox="0 0 1400 793" version="1.1" xmlns="http://www.w3.org/2000/svg" xmlns:xlink="http://www.w3.org/1999/xlink" xml:space="preserve" xmlns:serif="http://www.serif.com/" style="fill-rule:evenodd;clip-rule:evenodd;stroke-linejoin:round;stroke-miterlimit:1.41421;"><g><path d="M6.25,146.503l70.727,-0l58.486,113.571l57.126,-113.571l70.727,-0l0,233.944l-70.727,-0l0,-124.793l-43.184,81.608l-28.903,0l-43.525,-81.608l0,124.793l-70.727,-0l-0,-233.944Z" style="fill:none;fill-rule:nonzero;stroke:#000;stroke-width:12.5px;"/><path d="M643.036,198.188l-48.625,-0l-0,-51.685l176.478,-0l-0,51.685l-48.625,-0l-0,182.259l-79.228,-0l-0,-182.259Z" style="fill:none;fill-rule:nonzero;stroke:#000;stroke-width:12.5px;"/><rect x="794.291" y="146.503" width="78.548" height="233.944" style="fill:none;fill-rule:nonzero;stroke:#000;stroke-width:12.5px;"/><path d="M1022.05,385.887c-24.482,0 -46.188,-5.214 -65.117,-15.641c-18.928,-10.428 -33.663,-24.88 -44.204,-43.355c-10.541,-18.475 -15.812,-39.501 -15.812,-63.076c0,-23.803 5.271,-44.998 15.812,-63.587c10.541,-18.588 25.276,-33.04 44.204,-43.354c18.929,-10.315 40.635,-15.472 65.117,-15.472c24.483,0 46.188,5.157 65.117,15.472c18.928,10.314 33.663,24.709 44.204,43.184c10.541,18.475 15.812,39.728 15.812,63.757c-0,23.575 -5.271,44.601 -15.812,63.076c-10.541,18.475 -25.332,32.927 -44.374,43.355c-19.042,10.427 -40.691,15.641 -64.947,15.641Zm0,-61.886c14.282,-0 26.013,-5.554 35.194,-16.662c9.181,-11.108 13.771,-25.729 13.771,-43.864c0,-12.015 -2.097,-22.726 -6.291,-32.134c-4.193,-9.407 -10.031,-16.775 -17.511,-22.102c-7.481,-5.327 -15.982,-7.991 -25.503,-7.991c-9.294,0 -17.682,2.664 -25.162,7.991c-7.481,5.327 -13.262,12.695 -17.342,22.102c-4.081,9.408 -6.121,20.119 -6.121,32.134c0,18.135 4.534,32.756 13.601,43.864c9.068,11.108 20.856,16.662 35.364,16.662Z" style="fill:none;fill-rule:nonzero;stroke:#000;stroke-width:12.5px;"/><path d="M1171.27,146.503l68.347,-0l93.17,126.153l-0,-126.153l60.866,-0l0,233.944l-68.007,-0l-93.85,-121.733l0,121.733l-60.526,-0l0,-233.944Z" style="fill:none;fill-rule:nonzero;stroke:#000;stroke-width:12.5px;"/></g><path d="M805.963,108.848l-4.995,-8.182c-0,0 9.029,-16.651 31.5,-15.59c11.334,0.534 21.093,6.626 27.097,15.287l-5.057,8.391c-5.82,-5.419 -13.486,-8.931 -22.04,-9.458c-10.171,-0.627 -19.614,3.087 -26.505,9.552Z"/><g><g><path d="M239.319,738.694c-31.963,-0 -58.939,-5.894 -80.928,-17.682l17.002,-52.705c23.349,8.387 44.204,12.581 62.566,12.581c9.974,0 17.285,-1.19 21.932,-3.57c4.647,-2.381 6.971,-5.951 6.971,-10.711c-0,-3.174 -1.247,-5.951 -3.74,-8.331c-2.494,-2.381 -7.481,-5.044 -14.962,-7.991c-7.481,-2.947 -18.702,-6.574 -33.663,-10.881c-18.362,-5.441 -32.644,-14.338 -42.845,-26.693c-10.201,-12.355 -15.301,-26.579 -15.301,-42.674c-0,-24.936 8.217,-43.808 24.652,-56.616c16.435,-12.808 38.594,-19.212 66.477,-19.212c14.508,-0 28.79,1.53 42.844,4.59c14.055,3.061 26.523,7.538 37.404,13.432l-18.362,51.345c-12.694,-4.307 -23.745,-7.424 -33.153,-9.351c-9.408,-1.927 -18.532,-2.89 -27.373,-2.89c-14.961,-0 -22.442,4.08 -22.442,12.241c-0,4.08 2.437,7.537 7.311,10.371c4.873,2.834 14.904,6.404 30.093,10.711c23.802,6.347 41.824,16.038 54.065,29.073c12.241,13.035 18.362,28.62 18.362,46.755c0,25.163 -8.161,44.488 -24.482,57.976c-16.322,13.488 -40.465,20.232 -72.428,20.232Z" style="fill:none;fill-rule:nonzero;stroke:#000;stroke-width:12.5px;"/><path d="M368.192,499.309l164.237,0l0,51.686l-81.608,-0l-0,42.504l74.467,0l0,42.844l-74.467,0l-0,45.225l81.608,0l0,51.685l-164.237,0l0,-233.944Z" style="fill:none;fill-rule:nonzero;stroke:#000;stroke-width:12.5px;"/></g><g><path d="M958.937,738.224c-31.963,0 -58.939,-5.894 -80.928,-17.681l17.002,-52.706c23.349,8.388 44.204,12.581 62.566,12.581c9.975,0 17.285,-1.19 21.933,-3.57c4.647,-2.38 6.97,-5.951 6.97,-10.711c0,-3.174 -1.246,-5.951 -3.74,-8.331c-2.494,-2.38 -7.481,-5.044 -14.962,-7.991c-7.48,-2.947 -18.702,-6.574 -33.663,-10.881c-18.362,-5.44 -32.643,-14.338 -42.844,-26.693c-10.201,-12.354 -15.302,-26.579 -15.302,-42.674c0,-24.936 8.218,-43.808 24.653,-56.616c16.435,-12.808 38.593,-19.212 66.476,-19.212c14.508,0 28.79,1.53 42.845,4.591c14.054,3.06 26.522,7.537 37.404,13.431l-18.362,51.345c-12.695,-4.307 -23.746,-7.424 -33.154,-9.351c-9.407,-1.926 -18.532,-2.89 -27.373,-2.89c-14.961,0 -22.442,4.081 -22.442,12.241c0,4.081 2.437,7.538 7.311,10.371c4.874,2.834 14.905,6.404 30.093,10.712c23.802,6.347 41.824,16.038 54.066,29.073c12.241,13.034 18.361,28.619 18.361,46.754c0,25.163 -8.16,44.488 -24.482,57.976c-16.322,13.488 -40.464,20.232 -72.428,20.232Z" style="fill:none;fill-rule:nonzero;stroke:#000;stroke-width:12.5px;"/><path d="M1087.59,500.519l164.236,0l0,51.686l-81.608,-0l-0,42.504l74.468,-0l-0,42.844l-74.468,0l-0,45.225l81.608,-0l0,51.685l-164.236,0l-0,-233.944Z" style="fill:none;fill-rule:nonzero;stroke:#000;stroke-width:12.5px;"/></g></g><g><path d="M320.52,212.303c0,-5.834 -4.736,-10.571 -10.57,-10.571l-15.672,0c-5.834,0 -10.57,4.737 -10.57,10.571c-0,5.834 4.736,10.57 10.57,10.57l15.672,0c5.834,0 10.57,-4.736 10.57,-10.57Z"/><path d="M305.134,250.582c0,-5.834 -4.736,-10.57 -10.57,-10.57l-4.538,-0c-5.834,-0 -10.57,4.736 -10.57,10.57c-0,5.834 4.736,10.571 10.57,10.571l4.538,-0c5.834,-0 10.57,-4.737 10.57,-10.571Z"/><path d="M312.684,275.592l43.448,-0c4.357,-0 7.894,-3.538 7.894,-7.895c0,-4.357 -3.537,-7.894 -7.894,-7.894l-33.065,-0c-5.834,-0 -10.57,-4.737 -10.57,-10.571c-0,-5.834 4.736,-10.57 10.57,-10.57l45.027,-0c4.357,-0 7.894,-3.538 7.894,-7.895c0,-4.357 -3.537,-7.894 -7.894,-7.894l-25.208,0c-5.834,0 -10.571,-4.736 -10.571,-10.57c0,-5.834 4.737,-10.571 10.571,-10.571l24.033,0c0.276,-0.503 0.555,-1.004 0.839,-1.504c10.541,-18.588 25.275,-33.04 44.204,-43.354c18.929,-10.315 40.634,-15.472 65.117,-15.472c24.482,0 46.188,5.157 65.116,15.472c18.929,10.314 33.664,24.709 44.205,43.184c10.541,18.475 15.812,39.728 15.812,63.757c-0,23.575 -5.271,44.601 -15.812,63.076c-10.541,18.475 -25.333,32.927 -44.375,43.355c-19.042,10.427 -40.69,15.641 -64.946,15.641c-24.483,0 -46.188,-5.214 -65.117,-15.641c-18.929,-10.428 -33.663,-24.88 -44.204,-43.355c-5.365,-9.402 -9.364,-19.465 -11.999,-30.188c-0.262,0.019 -0.526,0.029 -0.793,0.029l-42.282,0c-5.834,0 -10.57,-4.736 -10.57,-10.57c-0,-5.834 4.736,-10.57 10.57,-10.57Zm106.248,0.629c-4.358,0 -7.894,3.538 -7.894,7.894c-0,4.357 3.537,7.895 7.894,7.895l13.463,-0c0.164,-0 0.327,-0.005 0.488,-0.015c2.19,5.699 5.134,10.814 8.832,15.344c9.068,11.108 20.856,16.662 35.364,16.662c14.281,-0 26.012,-5.554 35.193,-16.662c9.181,-11.108 13.772,-25.729 13.772,-43.864c-0,-12.015 -2.097,-22.726 -6.291,-32.134c-4.194,-9.407 -10.031,-16.775 -17.512,-22.102c-7.48,-5.327 -15.981,-7.991 -25.502,-7.991c-2.353,0 -4.648,0.171 -6.884,0.512c-0.221,-0.018 -0.444,-0.028 -0.671,-0.028l-65.504,0c-4.358,0.001 -7.895,3.538 -7.895,7.895c0,4.356 3.537,7.894 7.895,7.894l38.954,0c-3.327,3.974 -6.127,8.581 -8.4,13.82c-1.614,3.721 -2.908,7.646 -3.884,11.776l-19.12,0c-4.358,0.001 -7.894,3.538 -7.894,7.894c-0,4.357 3.536,7.894 7.894,7.895l16.985,-0c-0.068,1.502 -0.101,3.024 -0.101,4.569c-0,4.461 0.274,8.709 0.823,12.746l-10.005,-0Z"/></g><path d="M779.284,53.813l-10.481,-17.164c0,-0 18.942,-34.931 66.082,-32.707c23.776,1.122 44.249,13.901 56.844,32.07l-10.607,17.603c-12.21,-11.369 -28.292,-18.735 -46.237,-19.841c-21.336,-1.316 -41.146,6.476 -55.601,20.039Z"/><path d="M793.576,85.027l-7.542,-12.352c0,-0 13.632,-25.138 47.556,-23.538c17.111,0.808 31.844,10.004 40.908,23.08l-7.633,12.667c-8.787,-8.181 -20.361,-13.482 -33.275,-14.278c-15.355,-0.947 -29.611,4.66 -40.014,14.421Z"/><path d="M666.653,686.84l36.403,-125.837l89.625,118.956l34.073,-182.126l37.741,50.745l-7.807,41.36l0.099,-0.024l-36.731,202.924l-98.667,-129.806l-19.94,68.925l0.004,0.736l-0.217,0.001l-0.002,0.008l-47.913,0.222l-86.783,0.019l-0.221,-46.019l100.336,-0.084Z"/></svg>